<?xml version="1.0" standalone="no"?>
<!DOCTYPE svg PUBLIC "-//W3C//DTD SVG 20010904//EN"
 "http://www.w3.org/TR/2001/REC-SVG-20010904/DTD/svg10.dtd">
<svg version="1.0" xmlns="http://www.w3.org/2000/svg"
 width="1000.000000pt" height="1000.000000pt" viewBox="0 0 1000.000000 1000.000000"
 preserveAspectRatio="xMidYMid meet">
<metadata>
Created by potrace 1.14, written by Peter Selinger 2001-2017
</metadata>
<g transform="translate(0.000000,1000.000000) scale(0.100000,-0.100000)"
fill="#000000" stroke="none">
<path d="M3217 5723 c-4 -3 -7 -15 -7 -26 0 -39 -34 -77 -82 -95 l-48 -17 0
-316 0 -316 40 -12 c39 -11 90 -67 90 -98 0 -11 347 -13 1787 -11 l1787 3 7
29 c11 38 45 73 85 86 l34 12 0 312 0 313 -40 12 c-39 11 -55 30 -96 106 -11
20 -23 20 -1781 23 -973 1 -1773 -1 -1776 -5z m3542 -62 c15 -35 68 -86 99
-96 l22 -6 0 -284 0 -284 -42 -23 c-30 -16 -49 -36 -63 -65 l-20 -42 -1757 -1
-1757 0 -17 35 c-17 37 -53 67 -92 79 l-22 7 2 287 3 287 36 17 c43 20 89 71
89 99 0 19 30 19 1754 19 l1754 0 11 -29z"/>
<path d="M3265 5597 c-11 -18 -37 -43 -58 -56 l-37 -24 0 -242 0 -242 33 -23
c19 -13 44 -38 57 -57 l23 -33 1719 0 1718 0 9 24 c5 12 28 39 50 58 l41 35 0
241 0 240 -38 30 c-21 17 -44 42 -52 56 l-13 26 -1716 0 -1716 -1 -20 -32z
m3456 -67 c10 -6 19 -18 19 -28 0 -13 -3 -12 -16 6 -18 26 -46 28 -68 6 -9 -8
-16 -11 -16 -5 0 12 29 30 48 31 7 0 22 -5 33 -10z m-1989 -36 l58 -17 0 -73
c0 -72 -1 -74 -25 -74 -19 0 -25 5 -25 20 0 41 -29 79 -69 91 -110 33 -189
-51 -179 -190 5 -66 23 -107 59 -134 37 -27 107 -33 165 -13 26 9 48 15 49 13
1 -1 -4 -16 -11 -34 -37 -87 -286 -80 -382 10 -121 112 -75 336 81 396 66 25
197 28 279 5z m1980 -3 c-2 -8 0 -21 3 -30 5 -13 7 -14 15 -1 6 8 10 10 10 4
0 -17 -27 -37 -42 -31 -8 3 -6 6 5 6 17 1 17 2 2 18 -14 14 -18 14 -26 2 -6
-10 -9 -4 -9 19 0 29 3 33 23 30 12 -2 21 -9 19 -17z m-2930 -13 c46 -21 70
-57 72 -108 1 -50 -27 -89 -82 -115 -23 -11 -41 -24 -42 -28 0 -18 105 -118
146 -138 29 -14 44 -27 44 -40 0 -18 -8 -19 -113 -19 -131 0 -124 -4 -197 113
-28 45 -48 67 -61 67 -17 0 -19 -8 -19 -90 l0 -90 -95 0 -95 0 0 210 0 210
-25 0 c-20 0 -25 5 -25 26 l0 26 228 -4 c183 -3 234 -7 264 -20z m408 -188 l0
-210 25 0 c20 0 25 -5 25 -25 l0 -25 -120 0 -120 0 0 210 0 210 -25 0 c-20 0
-25 5 -25 25 l0 25 120 0 120 0 0 -210z m1086 0 c85 -180 102 -209 122 -210
17 0 22 -6 22 -25 l0 -26 -116 3 -116 3 -22 55 -22 55 -114 0 -113 0 -20 -52
-20 -53 -48 0 -49 0 23 53 c13 28 59 132 102 230 l78 177 97 0 97 0 99 -210z
m649 189 c47 -26 67 -54 72 -101 6 -57 -21 -98 -82 -128 l-47 -23 64 -64 c34
-36 78 -71 96 -79 21 -9 32 -21 32 -34 0 -19 -7 -20 -114 -20 l-115 0 -26 38
c-14 20 -41 60 -58 87 -20 31 -41 51 -55 53 -21 3 -22 1 -22 -87 l0 -91 -90 0
-90 0 -2 208 c-3 206 -3 207 -25 210 -17 3 -23 10 -23 29 l0 25 228 -4 c187
-2 232 -6 257 -19z m607 2 c147 -46 187 -252 72 -367 -64 -65 -138 -84 -320
-84 l-144 0 0 210 0 210 -25 0 c-20 0 -25 5 -25 26 l0 26 203 -5 c112 -2 218
-10 239 -16z m142 -50 c-5 -6 -34 20 -34 30 0 5 8 1 18 -8 10 -10 17 -20 16
-22z"/>
<path d="M3530 5355 l0 -85 39 0 c57 0 101 39 101 90 0 51 -35 80 -96 80 l-44
0 0 -85z"/>
<path d="M4988 5307 l-35 -82 70 -3 c38 -2 72 -1 75 2 5 6 -58 155 -69 161 -3
3 -22 -32 -41 -78z"/>
<path d="M5670 5355 l0 -85 35 0 c73 0 125 54 109 114 -9 38 -41 56 -96 56
l-48 0 0 -85z"/>
<path d="M6330 5266 l0 -186 28 0 c77 0 131 79 132 193 0 113 -30 158 -117
172 l-43 7 0 -186z"/>
<path d="M2018 4123 c7 -3 16 -2 19 1 4 3 -2 6 -13 5 -11 0 -14 -3 -6 -6z"/>
<path d="M2118 4103 c12 -2 32 -2 45 0 12 2 2 4 -23 4 -25 0 -35 -2 -22 -4z"/>
<path d="M2228 4083 c12 -2 32 -2 45 0 12 2 2 4 -23 4 -25 0 -35 -2 -22 -4z"/>
<path d="M2310 4081 c0 -13 39 -21 100 -20 l55 1 -50 9 c-27 4 -62 10 -77 13
-16 3 -28 2 -28 -3z"/>
<path d="M2514 4051 c4 -6 33 -11 64 -11 31 0 72 -4 91 -10 19 -5 41 -6 49 -1
16 9 -13 14 -142 27 -50 5 -67 4 -62 -5z"/>
<path d="M2868 4013 c12 -2 30 -2 40 0 9 3 -1 5 -23 4 -22 0 -30 -2 -17 -4z"/>
<path d="M3033 3993 c9 -2 23 -2 30 0 6 3 -1 5 -18 5 -16 0 -22 -2 -12 -5z"/>
<path d="M3303 3973 c9 -2 23 -2 30 0 6 3 -1 5 -18 5 -16 0 -22 -2 -12 -5z"/>
</g>
</svg>
