<?xml version="1.0" standalone="no"?>
<!DOCTYPE svg PUBLIC "-//W3C//DTD SVG 20010904//EN"
 "http://www.w3.org/TR/2001/REC-SVG-20010904/DTD/svg10.dtd">
<svg version="1.0" xmlns="http://www.w3.org/2000/svg"
 width="1210.000000pt" height="1210.000000pt" viewBox="0 0 1210.000000 1210.000000"
 preserveAspectRatio="xMidYMid meet">
<metadata>
Created by potrace 1.14, written by Peter Selinger 2001-2017
</metadata>
<g transform="translate(0.000000,1210.000000) scale(0.100000,-0.100000)"
fill="#000000" stroke="none">
<path d="M410 12082 c0 -9 -80 -97 -178 -195 -143 -143 -182 -177 -205 -177
-26 0 -27 -2 -27 -50 0 -48 1 -50 28 -50 22 0 60 -33 205 -178 135 -135 177
-183 177 -202 0 -38 -344 -380 -383 -380 -26 0 -27 -2 -27 -50 0 -48 1 -50 28
-50 22 0 60 -33 205 -178 135 -135 177 -183 177 -202 0 -38 -344 -380 -383
-380 -26 0 -27 -2 -27 -50 0 -48 1 -50 27 -50 36 0 383 -345 383 -381 0 -33
-355 -389 -388 -389 -19 0 -22 -5 -22 -45 0 -42 2 -45 26 -45 36 0 384 -346
384 -382 0 -32 -355 -388 -388 -388 -19 0 -22 -5 -22 -44 0 -40 3 -45 25 -48
16 -2 86 -64 205 -182 139 -137 180 -184 180 -203 0 -38 -346 -383 -384 -383
-24 0 -26 -3 -26 -45 0 -40 2 -45 23 -45 33 0 387 -356 387 -389 0 -18 -46
-70 -177 -203 -145 -145 -183 -178 -205 -178 -27 0 -28 -2 -28 -50 0 -48 1
-50 28 -50 22 0 60 -33 205 -178 134 -134 177 -183 177 -202 0 -19 -43 -68
-177 -202 -145 -145 -183 -178 -205 -178 -27 0 -28 -2 -28 -50 0 -48 1 -50 28
-50 22 0 60 -33 205 -178 134 -134 177 -183 177 -202 0 -19 -43 -68 -177 -202
-145 -145 -183 -178 -205 -178 -27 0 -28 -2 -28 -50 0 -48 1 -50 27 -50 39 0
383 -342 383 -380 0 -38 -344 -380 -383 -380 -26 0 -27 -2 -27 -50 0 -48 1
-50 27 -50 39 0 383 -342 383 -380 0 -38 -344 -380 -383 -380 -26 0 -27 -2
-27 -50 0 -48 1 -50 28 -50 22 0 61 -34 205 -178 133 -134 177 -184 177 -203
0 -33 -354 -389 -388 -389 -19 0 -22 -5 -22 -45 0 -42 2 -45 26 -45 37 0 384
-345 384 -381 0 -33 -355 -389 -388 -389 -19 0 -22 -5 -22 -45 0 -42 2 -45 26
-45 38 0 384 -347 384 -385 0 -39 -346 -385 -384 -385 -24 0 -26 -3 -26 -45 0
-40 2 -45 23 -45 16 0 76 -53 205 -183 147 -147 182 -187 182 -210 0 -26 2
-27 49 -27 47 0 48 1 43 26 -4 23 18 48 179 210 135 135 190 184 207 184 18 0
72 -48 203 -179 155 -155 179 -184 179 -210 0 -31 1 -31 50 -31 50 0 50 0 50
32 0 29 21 53 177 210 133 133 184 178 202 178 18 0 70 -45 203 -179 155 -155
178 -182 178 -210 0 -31 1 -31 50 -31 50 0 50 0 50 32 0 29 21 53 177 210 136
137 184 178 203 178 19 0 67 -41 203 -178 156 -157 177 -181 177 -210 0 -32 0
-32 50 -32 49 0 50 0 50 31 0 28 23 55 179 210 132 132 185 179 202 179 18 0
71 -47 202 -178 156 -157 177 -181 177 -210 0 -32 0 -32 50 -32 49 0 50 1 50
31 0 26 25 55 179 210 131 130 186 179 203 179 17 0 73 -50 207 -184 161 -162
183 -187 179 -210 -5 -25 -4 -26 43 -26 47 0 49 1 49 28 0 22 34 61 183 209
100 99 193 184 206 188 21 6 45 -15 207 -176 177 -177 184 -185 178 -216 l-6
-33 47 0 47 0 -6 33 c-6 32 0 39 184 222 125 124 190 196 190 209 0 14 -66 87
-190 211 -163 163 -190 194 -190 220 0 26 27 57 195 225 107 106 195 199 195
205 0 6 -90 101 -200 211 -132 131 -200 207 -200 220 0 14 65 86 190 210 162
161 190 193 190 219 0 26 -27 57 -192 222 -106 105 -201 193 -211 195 -13 2
-78 -57 -210 -190 -165 -165 -196 -192 -222 -192 -26 0 -56 26 -212 183 -119
119 -184 192 -189 211 -6 26 5 40 182 217 104 104 194 189 201 189 39 0 -4 54
-185 234 -179 177 -198 199 -194 225 3 21 52 77 191 215 103 102 193 186 199
186 7 0 12 13 12 30 0 17 -5 30 -13 30 -15 0 -382 368 -390 393 -9 24 -67 24
-67 -1 0 -9 -82 -99 -183 -200 -155 -155 -187 -182 -212 -182 -26 0 -57 27
-211 182 -103 104 -184 194 -188 208 -5 22 17 47 182 213 103 103 192 187 199
187 8 0 13 13 13 30 0 18 -5 30 -13 30 -7 0 -102 90 -212 200 -181 183 -235
226 -235 187 0 -7 -88 -100 -195 -207 -107 -106 -195 -201 -195 -210 0 -9 88
-104 195 -210 148 -148 195 -200 195 -219 0 -19 -45 -70 -182 -208 -101 -101
-193 -186 -205 -189 -30 -8 -32 -57 -3 -70 11 -5 101 -89 200 -188 157 -156
180 -183 180 -210 0 -27 -23 -54 -178 -209 -151 -151 -182 -177 -207 -177 -26
0 -57 27 -218 188 -103 104 -187 194 -187 200 0 7 -13 12 -30 12 -17 0 -30 -5
-30 -12 0 -6 -84 -96 -187 -200 -145 -146 -193 -188 -213 -188 -19 0 -66 41
-202 178 -113 114 -179 187 -184 206 -6 26 5 40 176 211 101 101 194 186 207
190 18 4 23 12 23 35 0 22 -5 30 -17 30 -9 0 -101 84 -205 187 -139 138 -188
194 -188 211 0 17 49 72 183 206 100 101 193 186 205 190 31 10 31 62 0 72
-12 3 -101 86 -198 183 -131 130 -178 184 -183 207 -5 29 4 40 176 211 100 99
190 183 200 186 10 4 17 17 17 32 0 18 -21 45 -77 99 -249 237 -323 315 -323
338 0 17 49 72 183 205 100 99 192 186 205 192 31 16 30 59 -1 66 -13 4 -105
88 -205 188 -132 132 -183 190 -187 212 -6 28 6 42 187 222 133 132 192 197
190 210 -2 10 -90 105 -195 211 -148 148 -198 192 -217 192 -19 0 -69 -44
-214 -189 -183 -183 -190 -189 -219 -180 -43 12 -382 354 -391 394 -6 28 4 40
184 220 121 121 190 197 190 210 0 13 -69 89 -190 210 -104 104 -190 198 -190
207 0 13 -8 18 -30 18 -17 0 -30 -5 -30 -13 0 -7 -85 -97 -189 -201 -166 -166
-191 -187 -212 -181 -35 10 -389 365 -389 390 0 21 346 373 388 394 31 16 31
67 0 76 -35 10 -388 366 -388 390 0 21 346 373 388 394 31 16 31 67 -1 76 -12
4 -104 89 -204 188 -134 133 -183 188 -183 205 0 17 48 72 178 201 97 97 190
182 207 189 l29 13 195 -195 c107 -108 202 -196 211 -196 9 0 104 88 211 195
168 170 194 199 191 223 -3 20 -53 77 -188 212 -139 140 -184 191 -184 210 0
18 48 73 200 224 143 143 200 207 200 223 0 13 -5 23 -12 23 -18 0 -378 373
-378 392 0 14 -9 18 -40 18 -32 0 -40 -4 -40 -18 0 -9 -82 -99 -183 -200 -139
-139 -188 -182 -207 -182 -19 0 -68 43 -208 183 -100 100 -182 190 -182 200 0
14 -9 17 -45 17 -36 0 -45 -3 -45 -18z m686 -644 c103 -104 184 -194 188 -208
5 -22 -17 -47 -181 -212 -166 -166 -190 -187 -213 -182 -15 4 -100 80 -207
188 -142 140 -183 187 -183 206 0 36 355 390 391 390 18 0 69 -45 205 -182z
m4 -3443 c145 -145 184 -190 182 -208 -2 -13 -79 -98 -185 -204 -139 -140
-188 -183 -207 -183 -19 0 -68 43 -207 182 -117 117 -183 190 -183 203 0 13
66 86 183 201 169 169 195 191 222 193 6 1 93 -82 195 -184z m1044 -1070 c-4
-22 -57 -81 -186 -211 -158 -158 -183 -180 -207 -176 -35 6 -391 358 -391 387
0 24 345 372 387 391 28 12 30 9 216 -175 176 -175 187 -188 181 -216z m-1052
208 c152 -152 178 -182 178 -208 0 -26 -26 -56 -178 -208 -134 -134 -183 -177
-202 -177 -19 0 -69 44 -207 182 -116 115 -183 190 -183 203 0 12 68 87 182
202 140 140 189 183 208 183 19 0 67 -42 202 -177z m867 -867 c161 -162 182
-186 176 -207 -4 -13 -86 -104 -183 -201 -135 -136 -183 -178 -202 -178 -19 0
-67 42 -202 177 -152 151 -178 182 -178 208 0 25 26 56 177 207 136 137 184
178 203 178 19 0 68 -43 209 -184z m-867 -3 c137 -136 178 -184 178 -203 0
-19 -41 -67 -178 -203 -146 -146 -182 -177 -205 -177 -24 0 -60 32 -208 179
-130 130 -179 185 -179 202 0 17 48 72 177 201 151 152 182 178 208 178 25 0
56 -26 207 -177z m859 -851 c151 -150 179 -183 179 -208 0 -25 -28 -57 -178
-207 -147 -146 -182 -177 -206 -177 -23 0 -58 30 -202 174 -156 156 -174 178
-174 208 0 29 19 51 173 205 108 107 181 173 197 176 14 2 27 5 29 6 2 0 84
-79 182 -177z m-859 -9 c137 -136 178 -184 178 -203 0 -19 -41 -67 -178 -203
-151 -151 -182 -177 -207 -177 -25 0 -57 28 -207 178 -132 133 -178 185 -178
203 0 18 46 70 177 201 151 152 182 178 208 178 25 0 56 -26 207 -177z m0
-860 c137 -136 178 -184 178 -203 0 -19 -41 -67 -178 -203 -150 -150 -182
-177 -207 -177 -25 0 -57 27 -207 177 -133 133 -178 184 -178 202 0 18 45 70
178 203 150 150 182 178 207 178 25 0 56 -26 207 -177z m859 0 c104 -105 179
-188 183 -203 5 -23 -16 -47 -178 -209 -172 -172 -186 -183 -212 -177 -19 5
-91 69 -201 179 -153 153 -172 176 -173 205 0 30 18 52 173 207 145 147 177
174 202 175 26 0 55 -25 206 -177z m6 -855 c172 -172 181 -183 176 -212 -5
-23 -52 -77 -179 -203 -154 -155 -176 -173 -206 -173 -30 0 -51 18 -206 173
-145 146 -172 177 -172 203 0 25 27 56 178 206 97 97 186 178 197 181 11 3 22
5 25 6 3 0 87 -81 187 -181z m2590 0 c157 -156 183 -187 183 -213 0 -25 -27
-56 -182 -212 -140 -140 -189 -183 -208 -183 -36 0 -400 364 -400 400 0 19 43
68 182 207 155 155 187 183 212 183 25 0 58 -28 213 -182z m-3455 -5 c137
-136 178 -184 178 -203 0 -19 -41 -67 -178 -203 -150 -150 -182 -177 -207
-177 -25 0 -57 27 -207 177 -130 130 -178 184 -178 201 0 18 48 72 178 203
149 150 182 178 207 179 26 0 55 -25 207 -177z m3450 -850 c161 -161 188 -192
188 -218 0 -26 -27 -57 -184 -214 -172 -172 -186 -183 -212 -177 -44 11 -394
363 -394 396 0 19 42 67 183 207 100 100 191 183 202 186 11 3 22 5 25 6 3 0
89 -83 192 -186z m-1547 -218 c-8 -43 -350 -385 -385 -385 -19 0 -67 42 -202
177 -152 152 -178 182 -178 208 0 26 26 56 178 207 115 115 186 178 202 180
21 4 54 -24 208 -176 171 -170 183 -183 177 -211z m682 213 c140 -140 183
-189 183 -208 0 -35 -354 -390 -388 -390 -33 0 -376 342 -386 384 -7 28 3 39
176 213 140 140 189 183 208 183 19 0 68 -43 207 -182z m-2585 -5 c136 -136
178 -184 178 -203 0 -19 -43 -68 -182 -207 -115 -116 -190 -183 -203 -183 -27
0 -385 358 -385 385 0 12 68 87 182 202 140 140 189 183 208 183 19 0 67 -42
202 -177z m860 0 c149 -149 178 -182 178 -207 0 -25 -29 -58 -179 -208 -129
-128 -186 -178 -203 -178 -16 0 -72 49 -200 177 -152 151 -178 182 -178 208 0
25 26 56 177 207 136 136 184 178 203 178 19 0 67 -42 202 -177z m3455 -855
c170 -170 192 -196 187 -218 -4 -14 -85 -104 -188 -207 -136 -138 -187 -183
-205 -183 -37 0 -401 364 -401 400 0 20 41 67 188 213 115 114 196 187 208
187 12 0 93 -74 211 -192z m-858 -2 c172 -172 183 -186 177 -212 -5 -19 -68
-91 -184 -206 -147 -148 -182 -178 -205 -178 -24 0 -60 31 -208 179 -149 148
-179 183 -179 207 0 24 31 60 182 211 140 141 189 183 208 183 19 0 68 -43
209 -184z m-3457 -3 c147 -147 178 -183 178 -206 0 -24 -31 -60 -179 -208
-130 -130 -185 -179 -202 -179 -31 0 -389 355 -389 385 0 12 68 87 182 202
140 140 189 183 208 183 19 0 67 -42 202 -177z m860 0 c149 -149 178 -182 178
-207 0 -24 -29 -58 -177 -207 -135 -135 -184 -179 -203 -179 -19 0 -66 42
-202 177 -152 151 -178 182 -178 208 0 25 26 56 177 207 136 136 184 178 203
178 19 0 67 -42 202 -177z m860 0 c152 -152 178 -182 178 -208 0 -26 -26 -56
-178 -208 -134 -134 -183 -177 -202 -177 -19 0 -68 43 -202 177 -152 151 -178
182 -178 208 0 25 26 56 177 207 136 136 184 178 203 178 19 0 67 -42 202
-177z m870 0 c134 -134 178 -184 178 -202 0 -37 -354 -391 -390 -391 -19 0
-67 42 -202 179 -149 148 -178 183 -178 207 0 24 29 58 177 206 151 152 182
178 208 178 25 0 56 -26 207 -177z m1725 -855 c157 -156 183 -187 183 -213 0
-26 -26 -57 -183 -213 -174 -173 -185 -183 -213 -176 -19 5 -88 67 -206 185
-149 148 -178 182 -178 206 0 24 30 58 183 211 137 136 189 182 208 182 18 0
70 -46 206 -182z m-4316 -6 c148 -147 179 -184 179 -207 0 -23 -31 -60 -177
-206 -135 -135 -184 -179 -203 -179 -19 0 -67 42 -207 182 -116 115 -183 190
-183 203 0 30 358 385 389 385 17 0 70 -47 202 -178z m861 1 c152 -152 178
-182 178 -208 0 -26 -26 -56 -178 -208 -134 -134 -183 -177 -202 -177 -19 0
-68 43 -202 177 -152 151 -178 182 -178 208 0 25 26 56 177 207 136 136 184
178 203 178 19 0 67 -42 202 -177z m860 0 c152 -152 178 -182 178 -208 0 -26
-26 -56 -178 -208 -134 -134 -183 -177 -202 -177 -19 0 -68 43 -202 177 -152
151 -178 182 -178 208 0 25 26 56 177 207 136 136 184 178 203 178 19 0 67
-42 202 -177z m860 0 c152 -152 178 -182 178 -208 0 -26 -26 -56 -178 -208
-134 -134 -183 -177 -202 -177 -19 0 -68 43 -202 177 -152 151 -178 182 -178
208 0 25 26 56 177 207 136 136 184 178 203 178 19 0 67 -42 202 -177z m870 0
c136 -136 178 -184 178 -203 0 -36 -354 -390 -390 -390 -19 0 -68 43 -202 179
-146 146 -178 183 -178 206 0 23 32 60 178 206 149 151 182 178 207 179 25 0
55 -26 207 -177z"/>
<path d="M2163 12093 c9 -2 25 -2 35 0 9 3 1 5 -18 5 -19 0 -27 -2 -17 -5z"/>
<path d="M6450 12077 c0 -16 -54 -76 -189 -211 -172 -171 -224 -236 -187 -236
7 0 99 -88 206 -195 106 -107 201 -195 210 -195 8 0 102 87 208 193 172 172
196 193 221 189 35 -5 386 -354 395 -392 5 -23 -17 -48 -184 -215 -145 -145
-190 -196 -190 -215 0 -36 374 -410 410 -410 19 0 69 44 215 190 167 167 192
189 215 184 15 -4 100 -80 208 -188 156 -155 182 -185 182 -211 0 -26 -26 -56
-182 -211 -101 -100 -191 -184 -200 -187 -20 -7 -25 -57 -6 -57 20 0 386 -371
393 -398 6 -23 -14 -46 -177 -210 -101 -101 -193 -188 -205 -193 -24 -9 -33
-59 -11 -59 18 0 398 -382 398 -400 0 -13 7 -15 30 -12 19 3 30 10 30 21 0 9
82 98 183 199 155 155 187 182 212 182 26 0 57 -27 213 -183 155 -155 182
-187 182 -212 0 -26 -27 -57 -182 -211 -101 -100 -191 -184 -200 -187 -11 -4
-18 -17 -18 -32 0 -15 7 -28 18 -32 9 -3 101 -89 205 -192 144 -143 187 -192
187 -211 0 -19 -44 -69 -190 -215 -121 -121 -190 -197 -190 -210 0 -13 69 -89
190 -210 163 -163 190 -194 190 -220 0 -26 -27 -57 -195 -225 -137 -136 -195
-200 -195 -216 0 -12 5 -24 10 -26 6 -2 93 -86 195 -188 145 -144 185 -190
185 -210 0 -36 -364 -400 -401 -400 -18 0 -71 47 -214 190 -146 146 -196 190
-215 190 -36 0 -410 -374 -410 -410 0 -19 45 -70 190 -215 146 -146 190 -196
190 -215 0 -19 -43 -69 -188 -213 -103 -103 -193 -187 -200 -187 -6 0 -12 -6
-12 -14 0 -8 -3 -21 -6 -30 -4 -11 0 -16 13 -16 10 0 96 -78 206 -188 143
-143 187 -193 187 -212 0 -19 -44 -69 -188 -213 -103 -103 -193 -187 -200
-187 -7 0 -12 -13 -12 -30 0 -17 5 -30 13 -30 7 0 97 -84 200 -188 143 -143
187 -193 187 -212 0 -19 -44 -69 -188 -213 -103 -103 -193 -187 -200 -187 -7
0 -12 -13 -12 -30 0 -17 5 -30 13 -30 19 0 387 -373 387 -393 0 -12 8 -17 30
-17 22 0 30 5 30 18 0 9 84 102 188 205 143 143 193 187 212 187 36 0 400
-364 400 -400 0 -19 -44 -69 -187 -211 -104 -103 -196 -189 -205 -192 -24 -9
-24 -57 0 -57 9 0 102 -84 205 -188 140 -140 187 -193 187 -211 0 -35 -360
-397 -401 -403 -25 -4 -48 15 -221 190 -190 191 -238 230 -238 194 0 -9 -85
-103 -190 -207 -120 -120 -190 -197 -190 -210 0 -12 70 -90 191 -211 179 -179
191 -193 185 -221 -8 -37 -359 -388 -396 -397 -23 -5 -48 17 -215 184 -146
146 -196 190 -215 190 -19 0 -69 -44 -218 -193 -120 -120 -192 -200 -192 -212
0 -12 72 -92 192 -212 149 -149 199 -193 218 -193 19 0 69 43 213 188 168 169
191 188 216 184 21 -3 78 -54 215 -191 102 -103 186 -193 186 -199 0 -7 13
-12 30 -12 17 0 30 5 30 12 0 6 84 96 187 200 142 143 193 188 212 188 19 0
70 -44 208 -183 101 -100 186 -192 189 -204 9 -33 61 -32 69 0 4 13 87 104
186 203 166 164 183 178 212 176 26 -3 64 -35 209 -180 138 -137 179 -184 184
-209 5 -29 10 -33 38 -33 27 0 32 4 34 27 3 40 366 403 402 403 19 0 68 -43
209 -184 176 -176 183 -185 176 -215 l-7 -31 46 0 c44 0 45 0 36 29 -7 27 1
37 179 215 159 159 191 186 216 186 26 0 57 -27 214 -184 176 -176 183 -185
176 -215 l-7 -31 47 0 46 0 -6 32 c-6 32 1 40 178 217 155 154 188 182 206
176 19 -6 21 -3 21 38 0 41 -2 45 -21 40 -17 -5 -57 30 -210 183 -121 120
-189 196 -189 209 0 29 383 410 404 402 13 -5 16 1 16 29 0 30 -3 35 -17 30
-13 -5 -65 41 -209 185 -154 154 -191 195 -187 213 7 29 373 396 395 396 14 0
18 8 18 40 0 35 -3 40 -23 40 -16 0 -75 53 -202 180 -156 157 -180 184 -177
208 3 20 52 76 185 210 100 100 190 182 199 182 14 0 18 8 18 40 0 35 -3 40
-22 40 -16 0 -76 53 -200 177 -152 152 -178 182 -178 208 0 26 26 57 183 213
100 100 190 182 200 182 13 0 17 9 17 40 0 32 -4 40 -18 40 -9 0 -99 82 -200
183 -139 139 -182 188 -182 207 0 19 43 68 183 208 100 100 190 182 200 182
13 0 17 9 17 40 0 32 -4 40 -18 40 -9 0 -99 82 -200 183 -139 139 -182 188
-182 207 0 19 43 68 183 208 100 100 190 182 200 182 14 0 17 9 17 45 0 40 -2
45 -23 45 -16 0 -74 52 -200 178 -147 147 -177 182 -177 206 0 23 31 59 179
207 120 120 185 179 200 179 18 0 21 6 21 45 0 40 -2 45 -23 45 -16 0 -74 52
-200 178 -151 151 -177 182 -177 207 0 26 26 57 178 208 124 124 184 177 200
177 19 0 22 5 22 45 0 40 -3 45 -22 45 -16 0 -76 53 -200 177 -152 152 -178
182 -178 208 0 26 26 56 178 208 124 124 184 177 200 177 19 0 22 5 22 45 0
40 -3 45 -22 45 -16 0 -76 53 -200 177 -152 152 -178 182 -178 208 0 26 26 56
178 208 124 124 184 177 200 177 19 0 22 5 22 45 0 40 -3 45 -22 45 -16 0 -76
53 -200 177 -152 152 -178 182 -178 208 0 26 26 56 178 208 124 124 184 177
200 177 19 0 22 5 22 45 0 39 -3 45 -21 45 -15 0 -81 59 -200 178 -151 150
-179 183 -179 208 0 25 29 58 183 212 100 100 190 182 200 182 27 0 24 77 -3
82 -11 2 -101 84 -200 182 -142 141 -180 184 -180 205 0 21 39 65 183 209 100
100 190 182 200 182 13 0 17 9 17 40 0 32 -4 40 -18 40 -22 0 -382 360 -382
383 0 14 -9 17 -45 17 -36 0 -45 -3 -45 -18 0 -9 -82 -99 -183 -200 -140 -140
-188 -182 -207 -182 -34 0 -380 345 -380 378 0 19 -6 22 -45 22 -36 0 -45 -3
-45 -18 0 -9 -82 -99 -183 -200 -139 -139 -188 -182 -207 -182 -19 0 -68 43
-208 183 -100 100 -182 190 -182 200 0 13 -9 17 -40 17 -32 0 -40 -4 -40 -18
0 -9 -82 -99 -183 -200 -139 -139 -188 -182 -207 -182 -19 0 -68 43 -208 183
-100 100 -182 190 -182 200 0 13 -9 17 -40 17 -32 0 -40 -4 -40 -18 0 -9 -82
-99 -183 -200 -139 -139 -188 -182 -207 -182 -19 0 -68 43 -208 183 -100 100
-182 190 -182 200 0 13 -9 17 -40 17 -32 0 -40 -4 -40 -18 0 -9 -82 -99 -183
-200 -139 -139 -188 -182 -207 -182 -19 0 -68 43 -208 183 -100 100 -182 190
-182 200 0 13 -9 17 -40 17 -32 0 -40 -4 -40 -18 0 -23 -358 -378 -390 -386
-22 -5 -47 17 -212 182 -104 103 -188 195 -188 204 0 14 -8 18 -35 18 -30 0
-35 -3 -35 -23z m1537 -639 c142 -141 183 -189 183 -208 0 -36 -365 -400 -401
-400 -18 0 -70 45 -208 184 -172 172 -183 186 -177 212 11 44 363 394 396 394
19 0 68 -43 207 -182z m860 0 c140 -140 183 -189 183 -208 0 -36 -354 -390
-390 -390 -36 0 -390 354 -390 390 0 36 354 390 390 390 19 0 68 -43 207 -182z
m860 0 c140 -140 183 -189 183 -208 0 -36 -354 -390 -390 -390 -36 0 -390 354
-390 390 0 36 354 390 390 390 19 0 68 -43 207 -182z m860 0 c140 -140 183
-189 183 -208 0 -36 -354 -390 -390 -390 -36 0 -390 354 -390 390 0 36 354
390 390 390 19 0 68 -43 207 -182z m860 0 c140 -140 183 -189 183 -208 0 -36
-354 -390 -390 -390 -19 0 -68 43 -202 179 -158 158 -178 182 -178 211 0 29
20 52 178 211 133 134 183 178 202 179 19 0 66 -42 207 -182z m-2580 -860
c147 -147 183 -188 183 -210 0 -21 -36 -62 -182 -207 -101 -100 -192 -182
-206 -186 -23 -6 -47 15 -213 181 -167 166 -188 191 -183 214 4 15 80 100 188
208 138 139 187 182 206 182 19 0 68 -43 207 -182z m860 0 c140 -140 183 -189
183 -208 0 -36 -354 -390 -390 -390 -36 0 -390 354 -390 390 0 36 354 390 390
390 19 0 68 -43 207 -182z m860 0 c141 -140 183 -188 183 -208 0 -36 -353
-390 -390 -390 -36 0 -390 354 -390 390 0 36 354 390 389 390 19 0 70 -45 208
-182z m865 -5 c148 -148 178 -183 178 -207 0 -23 -30 -58 -179 -207 -148 -149
-183 -179 -207 -179 -24 0 -59 30 -206 177 -152 151 -178 182 -178 208 0 25
26 56 177 207 151 152 182 178 208 178 25 0 56 -26 207 -177z m-2585 -855
c157 -157 183 -187 183 -213 0 -25 -27 -57 -178 -207 -114 -113 -187 -179
-206 -184 -26 -6 -40 5 -217 182 -119 119 -189 196 -189 209 0 12 69 89 187
207 144 144 194 188 213 188 19 0 68 -43 207 -182z m861 -1 c156 -156 183
-188 180 -210 -2 -18 -58 -82 -181 -206 -143 -145 -184 -181 -205 -181 -38 0
-392 352 -392 390 0 36 354 390 390 390 19 0 68 -43 208 -183z m865 -6 c152
-151 177 -180 177 -206 0 -26 -27 -56 -179 -207 -148 -149 -183 -178 -207
-178 -24 0 -59 30 -211 182 -116 115 -183 190 -183 203 0 12 69 89 187 207
166 166 190 187 213 182 15 -4 98 -79 203 -183z m859 2 c152 -152 178 -182
178 -208 0 -26 -26 -56 -178 -208 -150 -150 -182 -177 -207 -177 -25 0 -57 27
-207 177 -152 151 -178 182 -178 208 0 25 26 56 177 207 151 152 182 178 208
178 25 0 56 -26 207 -177z m-1719 -862 c152 -151 177 -180 177 -206 0 -26 -26
-56 -183 -213 -137 -136 -189 -182 -208 -182 -18 0 -70 46 -206 182 -156 156
-183 187 -183 213 0 25 27 57 182 212 171 171 183 181 212 176 23 -4 76 -50
209 -182z m859 2 c152 -152 178 -182 178 -208 0 -26 -26 -56 -178 -208 -150
-150 -182 -177 -207 -177 -25 0 -57 28 -212 182 -116 115 -183 190 -183 203 0
12 68 87 182 202 156 156 187 183 213 183 25 0 56 -26 207 -177z m860 0 c152
-152 178 -182 178 -208 0 -26 -26 -56 -178 -208 -151 -151 -182 -177 -207
-177 -26 0 -57 27 -212 183 -161 160 -182 185 -177 207 4 14 83 102 183 203
150 151 180 177 206 177 25 0 56 -26 207 -177z m-1719 -861 c151 -151 177
-181 177 -207 0 -26 -26 -56 -182 -211 -104 -103 -194 -184 -208 -188 -22 -5
-47 17 -212 182 -144 143 -188 193 -188 212 0 19 44 69 188 213 175 176 189
188 217 182 22 -4 78 -54 208 -183z m859 1 c152 -152 178 -182 178 -208 0 -26
-26 -56 -177 -207 -130 -129 -185 -177 -205 -180 -24 -3 -52 21 -213 182 -117
117 -185 192 -185 205 0 12 68 87 182 202 156 156 187 183 213 183 25 0 56
-26 207 -177z m860 0 c152 -152 178 -182 178 -208 0 -26 -26 -56 -178 -208
-151 -151 -182 -177 -207 -177 -26 0 -56 26 -206 178 -100 100 -179 188 -183
202 -5 22 16 47 177 208 155 155 186 182 212 182 25 0 56 -26 207 -177z
m-1719 -863 c148 -148 177 -182 177 -206 0 -25 -30 -59 -182 -210 -104 -103
-194 -184 -208 -188 -22 -5 -47 17 -212 182 -161 159 -188 191 -188 217 0 25
27 57 186 216 186 186 187 187 218 177 19 -7 100 -80 209 -188z m860 1 c148
-149 177 -183 177 -207 0 -25 -28 -57 -177 -205 -120 -120 -187 -179 -207
-183 -28 -7 -40 4 -213 176 -140 140 -183 189 -183 208 0 19 43 68 182 207
157 157 187 183 213 183 25 0 57 -27 208 -179z m859 2 c152 -152 178 -182 178
-208 0 -26 -26 -56 -178 -208 -150 -150 -182 -177 -207 -177 -25 0 -57 27
-207 177 -152 151 -178 182 -178 208 0 25 26 56 177 207 151 152 182 178 208
178 25 0 56 -26 207 -177z m-1730 -860 c145 -144 188 -193 188 -213 0 -36
-353 -390 -390 -390 -19 0 -69 44 -212 187 -119 119 -188 195 -188 208 0 27
368 395 394 395 12 0 93 -73 208 -187z m865 -5 c142 -141 183 -189 183 -208 0
-36 -355 -390 -391 -390 -35 0 -389 354 -389 390 0 36 354 390 390 390 19 0
68 -43 207 -182z m862 3 c152 -150 181 -183 181 -207 0 -24 -29 -58 -178 -207
-150 -150 -182 -177 -207 -177 -25 0 -57 27 -207 177 -149 149 -178 182 -178
207 0 24 29 58 178 207 141 142 183 179 204 179 21 0 63 -35 207 -179z m-2577
-858 c144 -144 188 -194 188 -213 0 -36 -364 -400 -400 -400 -19 0 -69 44
-212 187 -161 160 -188 192 -188 218 0 25 27 57 182 212 156 156 187 183 213
183 25 0 57 -28 217 -187z m856 -7 c156 -155 182 -185 182 -211 0 -26 -26 -56
-177 -206 -133 -132 -186 -178 -209 -182 -29 -5 -41 5 -219 183 -176 176 -187
190 -181 216 5 19 70 92 189 211 160 161 184 182 207 177 15 -4 100 -80 208
-188z m859 2 c140 -140 183 -189 183 -208 0 -36 -354 -390 -390 -390 -36 0
-390 354 -390 390 0 36 354 390 390 390 19 0 68 -43 207 -182z m860 0 c140
-140 183 -189 183 -208 0 -19 -43 -68 -182 -207 -115 -116 -190 -183 -203
-183 -12 0 -87 68 -202 182 -154 154 -183 187 -183 212 0 24 29 58 178 207
132 133 183 178 202 178 19 1 66 -40 207 -181z m-2575 -855 c144 -144 188
-194 188 -213 0 -36 -364 -400 -400 -400 -37 0 -400 361 -400 399 0 37 363
401 400 401 19 0 69 -44 212 -187z m860 -2 c130 -128 179 -184 183 -206 6 -28
-6 -42 -182 -217 -142 -141 -195 -188 -214 -188 -35 0 -399 364 -399 399 0 19
46 71 187 212 176 177 188 188 217 182 23 -4 75 -49 208 -182z m855 -3 c140
-140 183 -189 183 -208 0 -36 -354 -390 -390 -390 -36 0 -390 354 -390 390 0
36 354 390 390 390 19 0 68 -43 207 -182z m860 0 c140 -140 183 -189 183 -208
0 -36 -354 -390 -390 -390 -19 0 -67 42 -202 177 -152 151 -178 182 -178 208
0 25 27 57 182 212 115 116 190 183 203 183 12 0 87 -68 202 -182z m-2575
-855 c144 -144 188 -194 188 -213 0 -36 -364 -400 -400 -400 -36 0 -400 364
-400 400 0 36 364 400 400 400 19 0 69 -44 212 -187z m866 -6 c139 -139 182
-188 182 -207 0 -36 -364 -400 -400 -400 -36 0 -400 364 -400 400 0 19 44 69
188 213 176 176 189 187 217 181 22 -4 82 -57 213 -187z m849 1 c153 -153 183
-188 183 -212 0 -24 -29 -58 -177 -206 -132 -131 -186 -178 -209 -183 -29 -5
-40 4 -212 176 -155 155 -182 187 -182 212 0 25 28 57 182 212 140 140 189
183 208 183 19 0 68 -43 207 -182z m860 0 c157 -156 183 -187 183 -213 0 -26
-26 -56 -178 -208 -150 -150 -182 -177 -207 -177 -25 0 -57 27 -207 177 -152
151 -178 182 -178 208 0 25 27 57 182 212 115 116 190 183 203 183 12 0 87
-68 202 -182z m-1912 -678 c7 0 96 -83 198 -184 168 -167 184 -186 180 -212
-8 -43 -358 -394 -393 -394 -36 0 -400 364 -400 400 0 19 44 69 188 213 111
111 192 185 200 182 8 -3 20 -5 27 -5z m1052 -182 c157 -156 183 -187 183
-213 0 -26 -26 -56 -178 -208 -150 -150 -182 -177 -207 -177 -25 0 -57 28
-212 182 -140 140 -183 189 -183 208 0 36 354 390 390 390 19 0 68 -43 207
-182z m860 0 c157 -156 183 -187 183 -213 0 -26 -26 -56 -178 -208 -150 -150
-182 -177 -207 -177 -25 0 -57 28 -212 182 -112 112 -183 190 -183 202 0 27
368 396 395 396 12 0 86 -66 202 -182z m-1719 -862 c156 -155 182 -185 182
-211 0 -26 -26 -56 -177 -207 -116 -116 -188 -179 -207 -184 -26 -6 -40 5
-212 177 -127 127 -185 192 -190 212 -6 28 6 41 181 217 164 165 190 186 213
182 18 -3 86 -63 210 -186z m859 2 c157 -156 183 -187 183 -213 0 -26 -26 -56
-178 -208 -150 -150 -182 -177 -207 -177 -25 0 -57 28 -212 182 -140 140 -183
189 -183 208 0 36 354 390 390 390 19 0 68 -43 207 -182z m865 -5 c144 -144
188 -194 188 -213 0 -36 -354 -390 -390 -390 -19 0 -69 44 -212 187 -119 119
-188 195 -188 208 0 27 368 395 395 395 12 0 89 -69 207 -187z m-2584 -857
c155 -154 182 -185 182 -211 0 -25 -27 -57 -182 -212 -141 -142 -189 -183
-208 -183 -36 0 -400 365 -400 401 0 18 47 71 187 211 166 166 190 187 213
182 15 -4 100 -80 208 -188z m2777 -216 c-8 -35 -374 -400 -400 -400 -13 0
-88 68 -210 190 -151 150 -189 194 -187 212 4 29 367 396 396 401 16 2 68 -44
214 -187 170 -168 192 -194 187 -216z m-1918 218 c156 -156 183 -187 183 -213
0 -25 -27 -57 -182 -212 -140 -140 -189 -183 -208 -183 -19 0 -68 43 -207 182
-156 156 -183 187 -183 213 0 25 27 57 182 212 140 140 189 183 208 183 19 0
68 -43 207 -182z m866 -6 c141 -142 187 -194 187 -213 0 -18 -46 -70 -185
-209 -161 -161 -189 -185 -213 -182 -40 5 -392 357 -392 392 0 19 44 69 187
212 121 122 195 188 208 188 13 0 87 -66 208 -188z"/>
<path d="M1972 11867 c-139 -139 -182 -188 -182 -207 0 -36 354 -390 390 -390
36 0 390 354 390 390 0 36 -354 390 -390 390 -19 0 -68 -43 -208 -183z"/>
<path d="M5412 11867 c-139 -139 -182 -188 -182 -207 0 -19 43 -68 183 -208
155 -155 187 -182 212 -182 26 0 57 27 213 183 172 173 183 185 176 213 -4 20
-63 87 -183 207 -150 151 -180 177 -206 177 -26 0 -57 -26 -213 -183z"/>
<path d="M4557 11862 c-135 -135 -177 -183 -177 -202 0 -19 42 -67 178 -203
150 -150 182 -177 207 -177 25 0 57 27 207 177 137 137 178 184 178 203 0 19
-41 66 -178 203 -150 150 -182 177 -208 177 -25 0 -56 -27 -207 -178z"/>
<path d="M3862 11995 c-6 -14 -19 -25 -27 -25 -9 0 -20 -12 -25 -26 -6 -14
-19 -28 -30 -31 -11 -3 -22 -14 -26 -25 -3 -10 -17 -23 -30 -28 -13 -5 -24
-16 -24 -25 0 -8 -11 -20 -24 -26 -13 -6 -27 -20 -29 -31 -3 -11 -15 -22 -26
-25 -11 -3 -23 -14 -27 -25 -3 -10 -17 -23 -30 -28 -18 -7 -24 -17 -24 -40 0
-23 6 -33 24 -40 13 -5 27 -18 30 -28 4 -11 16 -22 27 -25 11 -3 23 -14 26
-25 2 -11 16 -25 29 -31 13 -6 24 -18 24 -26 0 -9 11 -20 24 -25 13 -5 27 -18
31 -29 3 -11 15 -23 26 -26 11 -4 24 -18 29 -31 5 -13 16 -24 25 -24 8 0 21
-11 27 -25 8 -18 19 -25 40 -25 21 0 32 7 40 25 6 14 17 25 25 25 7 0 19 11
25 25 6 14 15 25 19 25 11 0 99 88 99 99 0 5 9 11 21 14 11 3 23 15 26 26 3
12 9 21 13 21 5 0 27 18 49 39 49 47 55 86 16 101 -14 5 -25 16 -25 25 0 8
-11 21 -25 27 -13 6 -27 19 -30 29 -3 10 -14 21 -24 24 -10 3 -23 17 -29 30
-6 14 -19 25 -27 25 -9 0 -20 11 -25 24 -5 13 -17 27 -28 30 -10 4 -24 18 -30
31 -6 14 -18 25 -25 25 -8 0 -19 11 -25 25 -8 18 -19 25 -40 25 -21 0 -32 -7
-40 -25z"/>
<path d="M6282 11007 c-152 -152 -182 -187 -182 -211 0 -24 29 -59 178 -207
150 -152 182 -179 207 -179 26 0 56 26 212 183 161 160 182 185 177 207 -9 35
-363 390 -389 390 -13 0 -86 -66 -203 -183z"/>
<path d="M4557 11002 c-135 -135 -177 -183 -177 -202 0 -19 42 -67 178 -203
150 -150 182 -177 207 -177 25 0 57 27 207 177 130 130 178 184 178 201 0 17
-49 73 -178 203 -150 150 -183 179 -208 179 -25 0 -58 -29 -207 -178z"/>
<path d="M5417 11002 c-135 -135 -177 -183 -177 -202 0 -19 43 -68 183 -208
115 -114 190 -182 202 -182 13 0 88 67 203 183 139 139 182 188 182 207 0 19
-42 67 -178 203 -151 151 -182 177 -207 177 -26 0 -57 -26 -208 -178z"/>
<path d="M1983 10994 c-110 -111 -173 -182 -173 -195 0 -28 342 -369 370 -369
28 0 370 341 370 369 0 30 -344 371 -373 370 -15 0 -80 -59 -194 -175z"/>
<path d="M3708 10990 c-142 -143 -168 -174 -168 -199 0 -21 6 -32 20 -36 11
-3 20 -10 20 -15 0 -5 20 -29 45 -52 24 -24 50 -49 57 -56 7 -7 44 -44 82 -82
38 -39 72 -70 76 -70 4 0 12 -11 18 -25 25 -54 51 -37 237 150 108 108 175
182 175 194 0 12 -65 85 -170 190 -139 139 -176 171 -198 171 -21 -1 -61 -35
-194 -170z"/>
<path d="M3007 11130 c-3 -11 -17 -24 -31 -30 -14 -5 -26 -16 -26 -25 0 -9
-11 -20 -25 -25 -14 -5 -25 -16 -25 -25 0 -8 -11 -20 -24 -26 -13 -6 -29 -22
-35 -35 -6 -13 -18 -24 -26 -24 -9 0 -20 -11 -25 -25 -5 -14 -16 -25 -25 -25
-9 0 -20 -12 -25 -26 -6 -14 -19 -28 -30 -31 -28 -7 -28 -59 0 -68 11 -3 23
-17 26 -30 3 -14 15 -25 27 -27 14 -2 23 -11 25 -25 2 -12 13 -24 27 -27 13
-3 27 -15 30 -27 4 -11 18 -24 31 -29 14 -6 24 -18 24 -29 0 -13 8 -21 23 -23
14 -2 23 -11 25 -25 2 -13 13 -24 27 -27 15 -4 27 -16 31 -31 5 -19 13 -25 34
-25 21 0 29 6 34 25 4 15 16 27 31 31 14 3 25 14 27 27 2 14 11 23 25 25 13 2
24 13 27 28 4 15 14 24 26 24 13 0 22 9 26 25 4 15 16 28 30 31 13 4 24 15 26
27 2 14 11 23 25 25 12 2 23 13 27 26 3 14 16 26 31 30 20 5 25 13 25 36 0 23
-5 30 -20 30 -11 0 -26 12 -34 29 -9 16 -24 31 -36 34 -12 3 -20 13 -20 26 0
15 -6 21 -21 21 -13 0 -23 8 -26 20 -3 12 -18 27 -34 36 -17 8 -29 23 -29 34
0 12 -8 20 -22 22 -15 2 -24 11 -26 26 -2 14 -10 22 -23 22 -11 0 -24 11 -31
25 -14 32 -63 35 -71 5z"/>
<path d="M1107 10152 c-159 -160 -187 -192 -187 -217 0 -26 27 -57 183 -213
155 -155 187 -182 212 -182 26 0 58 27 218 188 143 143 187 193 187 212 0 36
-364 400 -400 400 -19 0 -69 -44 -213 -188z"/>
<path d="M6272 10147 c-139 -139 -182 -188 -182 -207 0 -19 44 -69 188 -213
118 -118 195 -187 207 -187 13 0 89 69 208 188 143 143 187 193 187 212 0 19
-43 68 -183 208 -155 155 -187 182 -212 182 -26 0 -57 -27 -213 -183z"/>
<path d="M7132 10147 c-139 -139 -182 -188 -182 -207 0 -36 364 -400 400 -400
19 0 68 43 208 183 155 155 182 187 182 212 0 26 -27 57 -183 213 -155 155
-187 182 -212 182 -26 0 -57 -27 -213 -183z"/>
<path d="M5417 10142 c-151 -151 -177 -182 -177 -207 0 -26 26 -57 178 -208
150 -150 182 -177 207 -177 25 0 57 27 207 177 152 152 178 182 178 208 0 26
-26 56 -178 208 -151 151 -182 177 -207 177 -26 0 -57 -26 -208 -178z"/>
<path d="M2843 10134 c-115 -116 -173 -181 -173 -196 0 -32 339 -368 371 -368
33 0 369 335 369 368 0 33 -341 372 -372 371 -16 0 -78 -56 -195 -175z"/>
<path d="M3703 10135 c-124 -124 -173 -181 -173 -197 0 -17 49 -72 173 -196
140 -140 177 -172 200 -172 22 0 59 32 197 170 139 138 170 175 170 197 0 23
-32 60 -173 201 -133 133 -178 172 -197 171 -19 0 -69 -45 -197 -174z"/>
<path d="M4563 10136 c-127 -127 -173 -180 -173 -197 0 -31 345 -379 375 -379
29 0 375 348 375 377 0 16 -51 75 -175 198 -144 145 -179 175 -202 174 -23 0
-61 -34 -200 -173z"/>
<path d="M2140 10276 c-5 -13 -18 -27 -28 -30 -11 -4 -22 -16 -25 -27 -3 -11
-14 -23 -25 -26 -11 -2 -25 -16 -31 -29 -6 -13 -18 -24 -26 -24 -9 0 -20 -12
-25 -26 -6 -14 -19 -28 -29 -31 -10 -2 -24 -16 -30 -29 -6 -13 -18 -24 -26
-24 -9 0 -20 -11 -25 -24 -5 -13 -18 -27 -29 -31 -35 -11 -26 -51 20 -96 22
-21 44 -39 48 -39 4 0 13 -11 19 -25 6 -14 18 -25 26 -25 8 0 18 -9 21 -21 4
-11 17 -25 30 -31 13 -6 26 -19 28 -30 3 -11 15 -22 26 -25 12 -3 21 -9 21
-13 0 -5 18 -27 39 -49 47 -49 86 -55 101 -16 5 14 16 25 25 25 8 0 21 11 27
25 6 14 17 25 25 25 7 0 18 11 24 24 6 13 22 29 35 35 13 6 24 18 24 26 0 9
11 20 24 25 13 5 27 17 30 28 4 10 18 24 31 30 14 6 25 18 25 25 0 8 11 19 25
25 34 16 35 64 1 80 -13 6 -27 20 -30 30 -4 11 -16 22 -27 25 -11 3 -23 14
-26 25 -3 11 -14 22 -25 25 -11 3 -22 14 -25 25 -2 11 -15 24 -28 30 -13 6
-26 20 -29 30 -4 11 -16 22 -27 25 -11 3 -23 15 -26 26 -3 11 -14 23 -25 27
-10 3 -23 17 -28 30 -7 18 -17 24 -40 24 -23 0 -33 -6 -40 -24z"/>
<path d="M5403 9288 c-112 -111 -203 -207 -203 -213 0 -6 90 -101 200 -210
125 -125 200 -207 200 -219 0 -21 -375 -406 -396 -406 -11 0 -24 -22 -24 -41
0 -5 8 -9 18 -9 9 0 102 -84 205 -188 160 -160 187 -192 187 -217 0 -26 -27
-57 -188 -218 -142 -141 -194 -187 -213 -187 -18 0 -71 47 -214 190 -146 146
-196 190 -215 190 -19 0 -69 -44 -215 -190 -167 -167 -192 -189 -215 -184 -15
4 -100 80 -207 188 -157 155 -183 185 -183 211 0 26 26 56 183 211 107 108
192 184 207 188 23 5 48 -17 215 -184 146 -146 196 -190 215 -190 19 0 69 44
218 193 121 121 192 200 192 212 0 13 -71 91 -193 213 -147 147 -198 192 -217
192 -19 0 -69 -44 -212 -187 -102 -104 -188 -197 -191 -208 -4 -16 -5 -16 -6
-3 0 10 -12 20 -25 24 -13 3 -110 93 -216 200 -107 107 -201 194 -209 194 -18
0 -431 -408 -431 -425 0 -7 90 -101 200 -210 131 -131 200 -206 200 -220 0
-21 -360 -387 -392 -398 -25 -9 -25 -67 0 -67 9 0 102 -84 205 -188 143 -143
187 -193 187 -212 0 -19 -45 -70 -190 -215 -121 -121 -190 -197 -190 -210 0
-27 388 -415 415 -415 13 0 91 71 213 193 147 147 192 198 192 217 0 19 -45
70 -190 215 -180 179 -190 192 -184 220 9 42 357 392 396 397 24 4 49 -18 215
-184 144 -144 194 -188 213 -188 19 0 70 44 216 189 175 172 194 188 220 184
39 -7 390 -354 398 -393 4 -23 9 -27 30 -23 15 3 28 14 32 27 3 11 88 103 187
204 156 156 186 182 212 182 26 0 57 -27 220 -190 120 -120 197 -190 210 -190
12 0 91 71 212 192 166 165 193 197 193 223 0 26 -27 57 -188 218 -169 168
-188 191 -184 216 6 41 368 401 403 401 18 0 71 -47 214 -190 146 -146 196
-190 215 -190 19 0 69 44 218 193 121 121 192 200 192 212 0 24 -387 415 -411
415 -8 0 -103 -88 -209 -195 -151 -151 -200 -195 -220 -195 -19 0 -68 42 -213
188 -160 160 -187 192 -187 217 0 26 27 58 195 225 107 106 195 198 195 204 0
20 -404 416 -425 416 -13 0 -89 -69 -215 -195 -125 -125 -202 -195 -215 -195
-13 0 -90 70 -215 195 -124 124 -202 195 -215 195 -13 0 -94 -74 -222 -202z
m869 -425 c144 -144 188 -194 188 -213 0 -19 -43 -68 -187 -211 -107 -106
-199 -189 -213 -193 -22 -5 -48 17 -217 187 -122 121 -193 199 -193 212 0 31
378 405 409 405 18 0 72 -47 213 -187z m1 -872 c143 -142 187 -192 187 -211 0
-36 -364 -400 -399 -400 -19 0 -71 46 -213 187 -161 161 -188 192 -188 218 0
25 27 57 187 217 166 166 190 187 213 182 15 -4 101 -82 213 -193z"/>
<path d="M1107 9292 c-159 -160 -187 -192 -187 -217 0 -26 27 -57 183 -213
155 -155 187 -182 212 -182 26 0 58 27 218 188 143 143 187 193 187 212 0 36
-364 400 -400 400 -19 0 -69 -44 -213 -188z"/>
<path d="M4552 9287 c-121 -121 -192 -200 -192 -212 0 -13 69 -89 188 -208
160 -159 192 -187 217 -187 26 0 57 27 213 183 155 155 182 187 182 212 0 26
-27 58 -188 218 -118 118 -195 187 -207 187 -13 0 -91 -71 -213 -193z"/>
<path d="M7137 9292 c-159 -160 -187 -192 -187 -217 0 -26 27 -57 183 -213
155 -155 187 -182 212 -182 26 0 58 27 218 188 133 134 187 194 187 210 0 32
-370 402 -403 402 -16 0 -77 -54 -210 -188z"/>
<path d="M3697 9282 c-144 -145 -177 -183 -177 -206 0 -23 33 -61 179 -207
130 -130 185 -179 202 -179 17 0 72 48 201 177 152 152 178 182 178 208 0 26
-26 56 -178 208 -136 135 -183 177 -202 177 -20 0 -67 -41 -203 -178z"/>
<path d="M2140 9416 c-5 -13 -18 -27 -29 -31 -11 -3 -23 -15 -26 -26 -4 -11
-18 -24 -31 -29 -13 -5 -24 -16 -24 -25 0 -9 -11 -20 -25 -25 -14 -5 -25 -16
-25 -25 0 -8 -11 -20 -24 -26 -13 -6 -29 -22 -35 -35 -6 -13 -18 -24 -26 -24
-9 0 -20 -11 -25 -24 -5 -13 -18 -27 -29 -31 -30 -9 -30 -70 0 -78 11 -3 23
-14 26 -25 2 -11 15 -24 28 -30 13 -6 26 -20 29 -30 4 -11 16 -22 27 -25 11
-3 23 -15 26 -26 3 -11 14 -23 25 -27 10 -3 23 -17 28 -30 5 -13 16 -24 25
-24 8 0 20 -11 26 -24 6 -13 20 -27 31 -29 11 -3 22 -15 25 -26 4 -15 13 -21
34 -21 24 0 53 24 164 135 74 74 139 135 145 135 5 0 10 7 10 15 0 8 11 22 25
31 17 11 25 26 25 44 0 19 -7 30 -25 38 -14 6 -25 19 -25 27 0 9 -11 20 -24
25 -13 5 -27 18 -30 28 -4 11 -16 22 -27 25 -11 3 -23 14 -26 25 -2 11 -15 24
-28 30 -13 6 -26 20 -29 30 -4 11 -16 22 -27 25 -11 3 -23 15 -26 26 -3 11
-14 23 -25 27 -10 3 -23 17 -28 30 -7 18 -17 24 -40 24 -23 0 -33 -6 -40 -24z"/>
<path d="M2838 9269 c-111 -112 -168 -177 -168 -191 0 -32 339 -368 371 -368
33 0 369 335 369 368 0 15 -52 73 -170 192 -153 152 -174 170 -203 169 -28 -1
-55 -25 -199 -170z"/>
<path d="M7998 8433 c-160 -161 -188 -193 -188 -218 0 -26 27 -57 183 -213
167 -167 185 -182 217 -182 32 0 51 15 218 183 155 155 182 187 182 212 0 26
-27 57 -182 212 -131 130 -191 183 -213 187 -28 6 -41 -5 -217 -181z"/>
<path d="M2827 8422 c-118 -118 -187 -195 -187 -207 0 -13 69 -89 188 -208
143 -143 193 -187 212 -187 19 0 69 44 213 188 118 118 187 195 187 207 0 13
-69 89 -188 208 -143 143 -193 187 -212 187 -19 0 -69 -44 -213 -188z"/>
<path d="M1973 8415 c-137 -137 -173 -179 -173 -200 0 -21 36 -62 175 -201
157 -157 178 -175 204 -172 24 2 69 41 206 176 120 120 175 180 175 195 0 15
-56 78 -178 200 -152 152 -181 177 -207 176 -25 0 -57 -28 -202 -174z"/>
<path d="M2827 7562 c-143 -143 -187 -193 -187 -212 0 -36 364 -400 400 -400
19 0 69 44 213 188 157 157 187 192 187 216 0 25 -29 59 -182 213 -156 156
-187 183 -213 183 -26 0 -57 -27 -218 -188z"/>
<path d="M7997 7562 c-143 -143 -187 -193 -187 -212 0 -19 43 -68 183 -208
166 -165 185 -182 217 -182 31 0 51 17 217 182 141 141 183 188 183 208 0 36
-364 400 -400 400 -19 0 -69 -44 -213 -188z"/>
<path d="M7143 7557 c-146 -146 -173 -177 -173 -203 0 -25 27 -56 178 -207
130 -130 184 -177 201 -177 34 0 381 348 381 381 0 18 -47 71 -178 202 -151
151 -182 177 -207 177 -25 0 -56 -27 -202 -173z"/>
<path d="M2827 6702 c-143 -143 -187 -193 -187 -212 0 -19 43 -68 183 -208
167 -167 185 -182 217 -182 32 0 51 15 218 183 139 139 182 188 182 207 0 36
-364 400 -400 400 -19 0 -69 -44 -213 -188z"/>
<path d="M4552 6707 c-155 -155 -182 -187 -182 -212 0 -26 27 -57 183 -213
155 -155 187 -182 212 -182 26 0 57 27 213 183 150 151 182 187 182 211 0 23
-32 60 -185 212 -151 150 -190 184 -212 184 -23 0 -61 -33 -211 -183z"/>
<path d="M5407 6702 c-143 -143 -187 -193 -187 -212 0 -19 44 -69 188 -213
160 -159 192 -187 217 -187 26 0 58 27 218 188 143 143 187 193 187 212 0 19
-44 69 -188 213 -160 159 -192 187 -217 187 -26 0 -58 -27 -218 -188z"/>
<path d="M6277 6702 c-143 -143 -187 -193 -187 -212 0 -19 43 -68 183 -208
155 -155 187 -182 212 -182 26 0 57 27 213 183 143 143 182 188 182 208 0 21
-40 66 -187 213 -120 119 -195 186 -208 186 -13 0 -87 -67 -208 -188z"/>
<path d="M7997 6702 c-143 -143 -187 -193 -187 -212 0 -19 43 -68 183 -208
155 -155 187 -182 212 -182 26 0 57 27 213 183 155 155 182 187 182 212 0 26
-27 57 -183 213 -139 139 -188 182 -207 182 -19 0 -69 -44 -213 -188z"/>
<path d="M7142 6697 c-137 -137 -182 -188 -182 -207 0 -18 44 -68 178 -202
150 -151 182 -178 207 -178 25 0 56 26 207 177 152 152 178 182 178 208 0 26
-26 56 -178 208 -135 135 -183 177 -202 177 -19 0 -68 -43 -208 -183z"/>
<path d="M3687 5842 c-143 -143 -187 -193 -187 -212 0 -36 364 -400 400 -400
36 0 400 364 400 400 0 36 -364 400 -400 400 -19 0 -69 -44 -213 -188z"/>
<path d="M7137 5842 c-143 -143 -187 -193 -187 -212 0 -36 364 -400 400 -400
36 0 400 364 400 400 0 36 -364 400 -400 400 -19 0 -69 -44 -213 -188z"/>
<path d="M2832 5837 c-139 -139 -182 -188 -182 -207 0 -36 354 -390 390 -390
36 0 390 354 390 390 0 36 -354 390 -390 390 -19 0 -68 -43 -208 -183z"/>
<path d="M4557 5842 c-151 -151 -177 -182 -177 -207 0 -26 27 -57 183 -213
115 -114 190 -182 202 -182 13 0 88 67 203 183 139 139 182 188 182 207 0 36
-354 390 -390 390 -19 0 -67 -42 -203 -178z"/>
<path d="M5418 5841 c-149 -149 -178 -183 -178 -207 0 -25 29 -58 183 -212
115 -114 190 -182 202 -182 13 0 88 67 203 183 152 152 182 187 182 211 0 24
-30 59 -179 207 -149 150 -183 179 -207 179 -24 0 -59 -31 -206 -179z"/>
<path d="M6277 5842 c-164 -164 -178 -181 -175 -210 4 -45 348 -392 387 -392
37 0 391 353 391 390 0 19 -43 68 -183 208 -155 155 -187 182 -212 182 -26 0
-57 -26 -208 -178z"/>
<path d="M2832 4987 c-167 -167 -182 -185 -182 -217 0 -32 15 -51 183 -218
139 -139 188 -182 207 -182 36 0 400 364 400 400 0 36 -364 400 -400 400 -19
0 -68 -43 -208 -183z"/>
<path d="M4547 4982 c-143 -143 -187 -193 -187 -212 0 -36 364 -400 400 -400
36 0 400 364 400 400 0 36 -364 400 -400 400 -19 0 -69 -44 -213 -188z"/>
<path d="M6277 4982 c-143 -143 -187 -193 -187 -212 0 -37 365 -399 398 -396
15 2 87 67 208 187 142 142 184 190 184 209 0 20 -42 68 -188 213 -115 114
-196 187 -208 187 -12 0 -91 -72 -207 -188z"/>
<path d="M7137 4982 c-143 -143 -187 -193 -187 -212 0 -36 364 -400 400 -400
36 0 400 364 400 400 0 36 -364 400 -400 400 -19 0 -69 -44 -213 -188z"/>
<path d="M5415 4980 c-167 -167 -180 -182 -177 -212 3 -28 33 -63 180 -210
151 -152 181 -178 207 -178 26 0 56 26 210 180 167 167 180 182 177 212 -3 27
-34 63 -180 211 -151 152 -181 177 -207 177 -26 0 -56 -26 -210 -180z"/>
<path d="M2827 4122 c-143 -143 -187 -193 -187 -212 0 -36 364 -400 400 -400
37 0 400 364 400 400 0 36 -365 400 -401 400 -18 0 -70 -46 -212 -188z"/>
<path d="M7137 4122 c-159 -160 -187 -192 -187 -217 0 -26 27 -57 183 -213
155 -155 187 -182 212 -182 26 0 58 27 218 188 143 143 187 193 187 212 0 36
-364 400 -400 400 -19 0 -69 -44 -213 -188z"/>
<path d="M5412 4117 c-139 -139 -182 -188 -182 -207 0 -19 43 -68 183 -208
155 -155 187 -182 212 -182 26 0 57 27 213 183 139 139 182 188 182 207 0 19
-43 68 -183 208 -155 155 -187 182 -212 182 -26 0 -57 -27 -213 -183z"/>
<path d="M6272 4117 c-139 -139 -182 -188 -182 -207 0 -19 43 -68 183 -208
155 -155 187 -182 212 -182 26 0 57 27 213 183 139 139 182 188 182 207 0 19
-43 68 -183 208 -155 155 -187 182 -212 182 -26 0 -57 -27 -213 -183z"/>
<path d="M5417 3262 c-159 -160 -187 -192 -187 -217 0 -26 27 -57 183 -213
155 -155 187 -182 212 -182 26 0 57 27 213 183 155 155 182 187 182 212 0 26
-27 58 -188 218 -118 118 -195 187 -207 187 -13 0 -89 -69 -208 -188z"/>
<path d="M7137 3262 c-143 -143 -187 -193 -187 -212 0 -36 364 -400 400 -400
19 0 70 44 214 189 164 164 188 192 182 212 -3 13 -89 108 -189 212 -139 142
-189 187 -208 187 -18 0 -70 -46 -212 -188z"/>
<path d="M6272 3257 c-139 -139 -182 -188 -182 -207 0 -36 364 -400 400 -400
19 0 68 43 208 183 155 155 182 187 182 212 0 26 -27 57 -183 213 -155 155
-187 182 -212 182 -26 0 -57 -27 -213 -183z"/>
<path d="M7997 2402 c-159 -160 -187 -192 -187 -217 0 -26 27 -57 185 -215
172 -172 187 -185 217 -182 28 3 63 34 216 185 156 156 182 186 182 212 0 26
-27 57 -188 218 -143 143 -193 187 -212 187 -19 0 -69 -44 -213 -188z"/>
<path d="M6282 2397 c-155 -155 -182 -187 -182 -212 0 -26 26 -57 178 -208
150 -150 182 -177 207 -177 25 0 57 27 207 177 152 152 178 182 178 208 0 26
-26 56 -177 206 -105 104 -188 179 -203 183 -23 5 -47 -16 -208 -177z"/>
<path d="M7137 2392 c-135 -135 -177 -183 -177 -202 0 -36 354 -390 390 -390
19 0 68 43 202 177 152 152 178 182 178 208 0 26 -26 56 -178 208 -151 151
-182 177 -207 177 -26 0 -57 -26 -208 -178z"/>
<path d="M6277 1532 c-118 -118 -187 -195 -187 -207 0 -13 69 -90 188 -208
146 -146 194 -188 210 -185 12 1 105 86 207 188 144 143 185 190 185 210 0 36
-354 390 -390 390 -19 0 -71 -45 -213 -188z"/>
<path d="M7137 1532 c-151 -151 -177 -182 -177 -207 0 -26 26 -57 178 -208
151 -151 182 -177 207 -177 26 0 57 27 213 183 114 115 182 190 182 202 0 13
-67 88 -183 203 -155 155 -187 182 -212 182 -26 0 -57 -26 -208 -178z"/>
<path d="M6282 667 c-121 -121 -182 -189 -182 -203 0 -31 351 -378 387 -382
22 -3 52 22 205 175 148 148 178 183 178 207 0 23 -30 58 -179 207 -132 132
-185 179 -202 179 -18 0 -72 -48 -207 -183z"/>
<path d="M6468 3 c6 -2 18 -2 25 0 6 3 1 5 -13 5 -14 0 -19 -2 -12 -5z"/>
</g>
</svg>
